<?xml version="1.0" encoding="UTF-8" standalone="no"?>
<!-- Created with Inkscape (http://www.inkscape.org/) -->

<svg
   version="1.1"
   id="svg2"
   width="7192.0269"
   height="3640.6267"
   viewBox="0 0 7192.0269 3640.6267"
   sodipodi:docname="vecteezy_people-working-and-meeting-illustration_.eps"
   xmlns:inkscape="http://www.inkscape.org/namespaces/inkscape"
   xmlns:sodipodi="http://sodipodi.sourceforge.net/DTD/sodipodi-0.dtd"
   xmlns="http://www.w3.org/2000/svg"
   xmlns:svg="http://www.w3.org/2000/svg">
  <defs
     id="defs6">
    <clipPath
       clipPathUnits="userSpaceOnUse"
       id="clipPath62">
      <path
         d="m 16839.6,15895.5 c 0,0 -548.8,-566.6 -505.5,-1446.3 43.4,-879.8 -86.6,-1610.4 866.6,-1595.5 0,0 101.1,-581.5 -476.6,-879.7 0,0 703.3,-790.4 2032.1,-0.1 0,0 -573.4,626.3 -327.9,1476.3 0,0 823.2,894.6 158.9,1908.5 -664.4,1014 -1747.6,536.8 -1747.6,536.8 z"
         id="path60" />
    </clipPath>
    <clipPath
       clipPathUnits="userSpaceOnUse"
       id="clipPath104">
      <path
         d="m 39061.9,17259.4 c 0,0 -564.1,-559.6 -523.2,-1432.1 40.9,-872.4 -95,-1596.4 880.9,-1585.5 0,0 101.2,-577 -491.4,-870.3 0,0 716.9,-786.6 2080.3,-8.4 0,0 -584.6,623.4 -329.9,1465.1 0,0 846.3,883.8 170.2,1891.9 -676.1,1008.1 -1786.9,539.3 -1786.9,539.3 z"
         id="path102" />
    </clipPath>
    <clipPath
       clipPathUnits="userSpaceOnUse"
       id="clipPath136">
      <path
         d="m 27539.5,15988.7 c 0,0 -528.7,-545.9 -487,-1393.5 41.8,-847.5 -83.4,-1551.4 834.9,-1537 0,0 97.4,-560.3 -459.2,-847.6 0,0 677.6,-761.4 1957.7,0 0,0 -552.4,603.4 -315.8,1422.2 0,0 793,861.9 153,1838.7 -640,976.8 -1683.6,517.2 -1683.6,517.2 z"
         id="path134" />
    </clipPath>
    <clipPath
       clipPathUnits="userSpaceOnUse"
       id="clipPath190">
      <path
         d="m 10631.2,17127.6 c 0,0 552.2,-686.7 399,-1643.1 -153.3,-956.4 -93.2,-1771.1 -1167.3,-1638 0,0 -183.06,-623.4 433.6,-1020.1 0,0 -887.6,-777.9 -2293.54,248.7 0,0 721.44,614.5 545.12,1573.7 0,0 -823.03,1078.8 47.04,2105.9 870.08,1027.1 2036.08,372.9 2036.08,372.9 z"
         id="path188" />
    </clipPath>
  </defs>
  <sodipodi:namedview
     id="namedview4"
     pagecolor="#ffffff"
     bordercolor="#000000"
     borderopacity="0.25"
     inkscape:showpageshadow="2"
     inkscape:pageopacity="0.0"
     inkscape:pagecheckerboard="0"
     inkscape:deskcolor="#d1d1d1" />
  <g
     id="g8"
     inkscape:groupmode="layer"
     inkscape:label="ink_ext_XXXXXX"
     transform="matrix(1.3333333,0,0,-1.3333333,0,3640.6267)">
    <g
       id="g10"
       transform="scale(0.1)">
      <path
         d="M 53940.2,0 H 0 V 27304.7 H 53940.2 V 0"
         style="fill:#ffffff;fill-opacity:1;fill-rule:nonzero;stroke:none"
         id="path12" />
      <path
         d="m 45492.4,8840.5 c 1070.3,4784.1 -5776.5,8358.4 -6628.7,8789.8 -1391,704.1 -6101.3,2884.7 -12794.9,2711.5 -1209.3,-31.2 -8362.4,-216.3 -11613,-3077.1 -1795,-1579.8 -524.4,-2324.6 -2517.9,-3869.3 -2798.77,-2168.7 -6492.05,-1621.9 -8016.1,-3473.3 -1253.53,-1522.7 75.13,-3313.8 668.01,-4113 30.4,-41 61.43,-81.6 92.85,-121.9 H 43587.9 c 1514,1531.9 1840.3,2866.4 1904.5,3153.3"
         style="fill:#f2f2f2;fill-opacity:1;fill-rule:nonzero;stroke:none"
         id="path14" />
      <path
         d="M 34124.2,9898.2 36347,9733.7 34841.5,6592.8 c 0,0 1620,120.8 1802.4,-826 h -3165 c 0,0 -185.4,2660.5 645.3,4131.4"
         style="fill:#ed7447;fill-opacity:1;fill-rule:nonzero;stroke:none"
         id="path16" />
      <path
         d="m 43992.4,9083.8 c -63.9,1252.5 -198.1,2616.8 -309.8,3147.5 -207.6,986.6 -2786.8,1279 -2786.8,1279 -1142.1,-1038.3 -1806.6,-40.8 -1806.6,-40.8 -600.7,-18.8 -2043.7,-305.1 -2796.5,-462.2 -0.1,-0.1 -713.6,-246.9 -1121.2,-767.4 -380.1,-525.6 -769.1,-1253.9 -1098.8,-1937.5 -0.1,-0.1 -0.2,-0.3 -0.3,-0.5 -44.7,-90.1 -88.4,-182.5 -129.8,-273.3 -20.5,-43.8 -40.8,-87.3 -60.7,-130.4 l 2.1,-0.1 c -152.4,-344.7 -262.5,-634.8 -262.5,-634.8 h 2504.6 c 11.9,-605.2 -135.5,-2555.1 -434.7,-3529.8 400.1,-41.8 929,-51.1 929,-51.1 0,0 3165.4,-39 5428.1,6.2 39.1,877.4 -178.9,3304.9 -178.9,3304.9 l 2122.8,90.3"
         style="fill:#edae2d;fill-opacity:1;fill-rule:nonzero;stroke:none"
         id="path18" />
      <path
         d="m 45784.2,15805.8 c 218.7,298.7 433.9,740.7 633.4,1250.6 l -886.6,-266 987.8,534 c 198.1,543 377.6,1143.5 525.3,1721.2 l -969.2,-454.7 1098.4,988.6 c 37.1,162.9 71.2,321.7 101.9,474.3 59.6,296.8 180.5,909.8 183.6,1479.5 l -633.7,-473 609.5,898.3 c -89.9,677.3 -454.4,1127.2 -1481.6,570.8 -365.2,-197.8 -644.4,-509.9 -855.9,-892.9 l 396.4,-1601.5 -653.3,1014.7 c -169.5,-492.5 -265.3,-1047.9 -312.9,-1605.9 l 591.1,-1565.6 -626.4,913.5 c -15.6,-616 16.7,-1205.4 61,-1683.4 l 309.1,-436.7 -275,106.5 c 36.9,-321.1 75.6,-564.3 99.9,-691 75.7,-393.3 216.4,-542.5 330.3,-596.4 64.3,-36.4 158.2,-74.5 264.6,-70.7 89.3,-12.4 250.5,41.9 502.3,385.8"
         style="fill:#008890;fill-opacity:1;fill-rule:nonzero;stroke:none"
         id="path20" />
      <path
         d="m 48909.5,12381.3 c 81.6,48.4 148.1,96.8 191.3,151.8 206.3,262.6 -168.8,393.8 -168.8,393.8 -340.4,73.5 -675.2,73.5 -994.6,21.9 l -687.1,-597 396.4,535.2 c -374.6,-98.7 -722,-263.5 -1024.6,-455.9 l -275.1,-713.8 83.4,584.4 c -188.6,-135.3 -355.3,-279 -495.2,-419.7 l -85.2,-446.1 -64.6,285 c -136.7,-158 -234.7,-305.9 -285.5,-425.6 -262.6,-618.9 281.3,-693.9 281.3,-693.9 426.4,-145.9 899.6,-43.3 1299.5,207.2 l -724.4,114.7 968.1,64.1 c 166.7,141.7 312.7,310 426,495.4 26.4,43.2 54.2,84.1 83,122.8 l -664.4,55.4 829.2,134.5 c 252.6,250.9 547.9,390.9 777.1,511.6 l -324.7,107.2 458.9,-33"
         style="fill:#008890;fill-opacity:1;fill-rule:nonzero;stroke:none"
         id="path22" />
      <path
         d="m 45523.9,8215.9 c -7,8.5 -170.6,212.6 -266.4,573.7 -88.2,332.4 -131.6,865.3 162.9,1515.9 178.3,394 463.3,766.9 847.1,1108.3 306.4,272.5 676.1,525.7 1098.9,752.6 719.4,386 1352.4,564.5 1358.7,566.3 l 13.7,-49.1 c -6.3,-1.8 -634.7,-179.1 -1349.3,-562.6 -657.8,-353.2 -1525.3,-958.4 -1922.7,-1836.5 -287.7,-635.8 -246.2,-1155.4 -160.7,-1479.3 92.7,-351.3 255.7,-555.1 257.3,-557.1 l -39.5,-32.2"
         style="fill:#006b6b;fill-opacity:1;fill-rule:nonzero;stroke:none"
         id="path24" />
      <path
         d="m 43730.4,17696.9 255.4,766.2 c -3.9,17.6 -7.6,34.9 -11.6,52.8 -118.6,530.7 -366.3,1038.6 -663.8,1492.5 l -105.1,-967.4 -116.8,1284.6 c -293.5,394.5 -613.5,736.3 -897.5,1000.7 l -111,-681.8 -159.2,919.8 c -144.4,119.8 -270.3,211.8 -365.9,271.1 -543.9,337.6 -1781.7,243.9 -994,-1725.4 100.4,-251.2 216.6,-503 343.5,-751.8 l 1091.2,-260.9 -942.4,-20.5 c 189.3,-346.4 396.6,-683.9 608.8,-1002.4 l 1036.9,-130.6 -930.7,-26.7 c 276.3,-403.9 557,-772.9 813.5,-1085.1 l 829.9,-116.6 -612.4,-141.3 c 324.3,-374.3 589.4,-633 724.9,-721.4 320.5,-209.1 527.1,68.6 612.1,225.1 53.6,128.7 63.1,265.6 63.1,265.6 l 1.5,0.1 c 21.6,273.9 30.1,879.2 -157.5,1842.3 l -312.9,-488.9"
         style="fill:#008890;fill-opacity:1;fill-rule:nonzero;stroke:none"
         id="path26" />
      <path
         d="m 44318.5,8592.8 -50.9,3.6 c 3,43.1 296,4337.9 -37.3,6671.3 -173.7,1215.7 -1049.6,2707.3 -1753.8,3744.4 -764,1125.2 -1496.2,1973 -1503.6,1981.5 l 38.6,33.3 c 7.3,-8.4 741.2,-858.1 1506.9,-1985.7 449.8,-662.4 822.5,-1289.9 1107.7,-1864.9 357,-720 577.3,-1359.7 654.7,-1901.4 334.1,-2338.7 40.7,-6638.9 37.7,-6682.1"
         style="fill:#006b6b;fill-opacity:1;fill-rule:nonzero;stroke:none"
         id="path28" />
      <path
         d="m 45018.5,7501.3 c -1.4,6.3 -142.2,646.8 -246.7,1712.1 -96.3,982.8 -180.6,2539.1 -35.2,4372 145.5,1832.7 607.2,3990.5 968.9,5478 391.8,1611.4 754,2805.1 757.6,2817 l 48.8,-14.9 c -3.6,-11.8 -365.5,-1204.4 -757,-2814.4 -361.2,-1485.6 -822.3,-3640.5 -967.4,-5469.7 -145.2,-1828.8 -61.1,-3381.5 35,-4362 104.1,-1062.5 244.3,-1700.7 245.7,-1707.1 l -49.7,-11"
         style="fill:#006b6b;fill-opacity:1;fill-rule:nonzero;stroke:none"
         id="path30" />
      <path
         d="m 51144.6,15482.9 c -46.9,120.7 -197.8,218.3 -277,262.6 -348.5,160 -787.1,268.2 -1262,314 l -575.3,-238.1 252.8,259.4 c -420.8,14.8 -859.6,-18.9 -1282.6,-108.3 l -683.2,-663.7 312.1,569.4 c -116,-34.7 -229.8,-74.1 -340.8,-118.3 -351.6,-139.9 -654.2,-343.6 -908.2,-573.1 l -75.8,-553.2 -49,434.7 c -588.3,-587.1 -878.2,-1292.9 -872.1,-1541.2 9.1,-365.6 423.2,-421 423.2,-421 561.1,-18.4 1039.7,122.3 1460,343.4 l -1062.1,283.9 1387.7,-90.5 c 386.9,256 723,570.3 1031.7,866.8 l -1294.2,-76.1 1561,332.1 c 17.9,16.9 35.7,33.8 53.4,50.4 151.7,142.4 313.3,238.9 477.1,303 l -359.8,214.7 543.2,-156.1 c 608.9,153.7 1209.5,-74.9 1413.7,-28.8 169.9,38.4 160.1,207.3 126.2,334"
         style="fill:#008890;fill-opacity:1;fill-rule:nonzero;stroke:none"
         id="path32" />
      <path
         d="m 45289.4,7696.1 c -2.1,6.8 -212.3,686.6 -309.6,1661.4 -57.2,572.5 -64.8,1133.5 -22.8,1667.4 52.5,667.8 183.4,1294.9 389,1863.8 234.8,649.8 629.5,1199.5 1173.3,1634 434.5,347.2 964.5,621.8 1575.3,816.2 1038.8,330.8 1964.7,314.4 1974,314.2 l -1.1,-51 c -9.2,0.2 -928,16.3 -1958.9,-312.2 -949,-302.4 -2190.4,-967.5 -2714.7,-2418.5 -462.2,-1279.1 -452.7,-2614.1 -363.4,-3508.8 96.8,-969.7 305.4,-1644.5 307.5,-1651.2 l -48.6,-15.3"
         style="fill:#006b6b;fill-opacity:1;fill-rule:nonzero;stroke:none"
         id="path34" />
      <path
         d="m 42075.5,15634.2 237.4,-763 -552.5,896.5 c -370.7,128.5 -823.4,191.3 -1386.2,149.1 l 475.8,-658 -811.6,621.9 c -59.7,-8.3 -120.4,-17.5 -182.4,-28 -2213,-375.1 -2505.6,-1541.2 -2231.8,-1763 106.9,-86.5 369.5,-116.1 688,-117.5 l 1040.6,774 -697,-766.7 c 546.1,22.9 1146.6,91.5 1406.5,91.5 213.1,0 454.8,-21.9 705.3,-58.9 l 545,480.9 -300.9,-521.2 c 338.2,-61.5 680.9,-146.1 982.3,-238.4 l 603.3,271.9 -406.5,-335.2 c 306.5,-103.8 551.1,-212.6 673.5,-306.2 l 0.3,0.7 c 0,0 115.8,-94.2 250.2,-139.4 84.2,-25 185.6,-37 285.9,-4.4 l -0.9,-1.8 c 22.1,7.9 41.8,16.3 59.2,24.4 h -0.1 c 0.2,0.1 0.4,0.2 0.6,0.2 17.1,8 31.4,15.5 42.9,21.9 33.1,23.5 55.8,55.7 66.5,73.2 61,118.3 140.7,435.1 -243.2,1032.4 -277.1,431 -627.3,946.3 -1250.2,1263.1"
         style="fill:#008890;fill-opacity:1;fill-rule:nonzero;stroke:none"
         id="path36" />
      <path
         d="m 43864.9,8650.3 -47,19.8 c 2.2,5.3 220.5,530.6 308.1,1342.2 80.7,748.5 63.6,1900.7 -476.7,3138.9 -576.3,1320.5 -1958.7,1697.8 -3017,1781.7 -1150.3,91.3 -2176.5,-134.3 -2186.7,-136.6 l -11.1,49.7 c 10.3,2.3 1043.9,229.6 2201.9,137.7 681.2,-54 1271.8,-206.2 1755.5,-452.3 606.2,-308.6 1045,-766.1 1304.1,-1359.8 240.7,-551.7 399.4,-1132.5 471.7,-1726.5 57.8,-475.2 60.7,-959.7 8.8,-1440.2 -88.6,-818.5 -309.4,-1349.3 -311.6,-1354.6"
         style="fill:#006b6b;fill-opacity:1;fill-rule:nonzero;stroke:none"
         id="path38" />
      <path
         d="M 46180.4,8939.1 H 43128 c 0,0 -254.7,-1941.9 716.2,-3231.1 h 1619.9 c 971,1289.2 716.3,3231.1 716.3,3231.1"
         style="fill:#c7470a;fill-opacity:1;fill-rule:nonzero;stroke:none"
         id="path40" />
      <path
         d="M 46212.7,5696.8 H 2794.09 c -25.9,0 -46.89,21 -46.89,46.9 0,25.9 20.99,46.9 46.89,46.9 H 46212.7 c 25.9,0 46.9,-21 46.9,-46.9 0,-25.9 -21,-46.9 -46.9,-46.9"
         style="fill:#382234;fill-opacity:1;fill-rule:nonzero;stroke:none"
         id="path42" />
      <path
         d="m 16839.6,15895.5 c 0,0 -648.8,-563.9 -605.5,-1443.6 43.3,-879.8 13.4,-1613.1 966.6,-1598.2 0,0 101.1,-581.5 -476.6,-879.7 0,0 -65.9,-873.4 2021.9,10.4 0,0 -563.2,615.8 -317.7,1465.8 0,0 823.2,894.6 158.9,1908.5 -664.4,1014 -1747.6,536.8 -1747.6,536.8"
         style="fill:#ed7447;fill-opacity:1;fill-rule:nonzero;stroke:none"
         id="path44" />
      <path
         d="m 17362.5,14254.4 c 42.2,-60 123.5,-73.2 181.5,-29.6 58.1,43.6 70.9,127.5 28.7,187.4 -42.2,60 -123.5,73.2 -181.6,29.6 -58,-43.6 -70.8,-127.5 -28.6,-187.4"
         style="fill:#382234;fill-opacity:1;fill-rule:nonzero;stroke:none"
         id="path46" />
      <path
         d="m 16458.8,14347.7 c 0,-74.1 58.2,-134.2 130,-134.2 71.8,0 130,60.1 130,134.2 0,74.1 -58.2,134.2 -130,134.2 -71.8,0 -130,-60.1 -130,-134.2"
         style="fill:#382234;fill-opacity:1;fill-rule:nonzero;stroke:none"
         id="path48" />
      <path
         d="m 16973.9,14399.8 c 0,0 295.8,-465.4 229.6,-548.4 -66.1,-83 -214.2,-112.6 -374.4,-43.5 l 118.2,542.2 c 0,0 4,40.8 26.6,49.7"
         style="fill:#ed7447;fill-opacity:1;fill-rule:nonzero;stroke:none"
         id="path50" />
      <path
         d="m 17751.3,14717.1 c 14.7,25.6 1.6,62.2 -10.8,82.1 -33.7,53.7 -107.1,56.5 -184.2,59.6 -81.1,3.2 -169,6.6 -198.6,-48.5 -12.4,-23.1 -15,-57.4 0,-82 18.5,-30.3 54.3,-30.4 209.4,-33.5 134.3,-2.7 169.2,-3.8 184.2,22.3"
         style="fill:#382234;fill-opacity:1;fill-rule:nonzero;stroke:none"
         id="path52" />
      <path
         d="m 16820,14733.4 c 14.6,25.6 1.6,62.1 -10.9,82 -33.6,53.7 -107,56.6 -184.1,59.6 -81.1,3.2 -169,6.7 -198.6,-48.4 -12.4,-23.1 -15,-57.4 0,-82 18.5,-30.3 54.2,-30.5 209.4,-33.6 134.3,-2.6 169.2,-3.7 184.2,22.4"
         style="fill:#382234;fill-opacity:1;fill-rule:nonzero;stroke:none"
         id="path54" />
      <g
         id="g56">
        <g
           id="g58"
           clip-path="url(#clipPath62)">
          <path
             d="m 17200.7,12853.7 c 0,0 418.8,79.6 726.9,347.9 0,0 -134.8,-785.2 -972.4,-954.2 l 245.5,606.3"
             style="fill:#ed7447;fill-opacity:1;fill-rule:nonzero;stroke:none"
             id="path64" />
        </g>
      </g>
      <path
         d="m 17080.8,13155.7 c 271,35 382.1,246.4 414,323.9 h -830.3 c 28.2,-89.1 137.4,-359.9 416.3,-323.9"
         style="fill:#ffffff;fill-opacity:1;fill-rule:nonzero;stroke:none"
         id="path66" />
      <path
         d="m 18243.1,16143.5 c 0,0 587.6,191.3 369,888.3 -19.5,61.9 -44,114.9 -72.5,160.2 -273.3,309.6 -776.5,177.6 -880.3,-119.3 -146.4,-418.9 50.8,-724.2 50.8,-724.2 0,0 -1421.3,27.3 -1886,-1653.7 -458.9,-1660.3 471.5,-2255.7 1363.5,-2138.3 26.6,110 27.5,238.9 13.2,297.9 -96.5,-7.3 -661.3,-13.3 -843.7,583.1 -233,762 -102.8,2002.3 427.9,2321.6 783.2,471.1 1358.3,-615.8 1358.3,-1244.5 0,0 288.7,170.9 378.2,-34.5 93.4,-214.3 -67.1,-463.6 -360.4,-591.6 0,0 101.7,-874.8 238.4,-1175.4 0,0 1401.5,123.1 1633.9,806.4 232.3,683.3 -642.4,2214 -1790.3,2624"
         style="fill:#382234;fill-opacity:1;fill-rule:nonzero;stroke:none"
         id="path68" />
      <path
         d="m 18501.8,12265.3 c 0,0 -813.9,-1205.8 -1597.7,-180.9 0,0 -1929.3,-241.1 -2441.8,-663.2 -512.5,-422 -2411.7,-2622.7 -2652.9,-4310.8 0,0 -633,-1236 783.8,-1597.8 l 4310.9,281.4 h 3316.1 c 0,0 844.1,-381.9 1537.4,0 693.4,381.8 482.3,1195.8 241.2,2612.6 0,0 -331.6,2321.3 -844.1,2984.5 0,0 -1196.2,1216 -2652.9,874.2"
         style="fill:#9d5b69;fill-opacity:1;fill-rule:nonzero;stroke:none"
         id="path70" />
      <path
         d="m 12308.7,8516.7 2487,-105.5 -783.8,-1522.4 c 0,0 1974.6,-467.2 2487.1,-512.5 0,0 1522.3,-60.3 1854,-1070.1 0,0 -2080.1,-75.4 -2336.4,0 -256.2,75.3 -3527,-452.2 -4024.5,-135.7 -497.4,316.5 -783.7,1959.5 316.6,3346.2"
         style="fill:#ed7447;fill-opacity:1;fill-rule:nonzero;stroke:none"
         id="path72" />
      <path
         d="m 19568.1,11171.3 c 0,58.2 -47.2,105.3 -105.4,105.3 h -1771 c -58.1,0 -105.3,-47.1 -105.3,-105.3 V 8418.1 c 0,-58.2 47.2,-105.4 105.3,-105.4 h 1771 c 58.2,0 105.4,47.2 105.4,105.4 v 2753.2"
         style="fill:#382234;fill-opacity:1;fill-rule:nonzero;stroke:none"
         id="path74" />
      <path
         d="m 17767.3,8669 c 0,0 1748.4,241.2 1823.8,-452.2 75.4,-693.3 542.6,-2863.9 1266.1,-2999.5 723.5,-135.7 1040.1,271.3 1416.9,723.5 376.8,452.2 -482.3,3557.2 -482.3,3557.2 l -1326.5,-602.9 c 0,0 -738.5,1085.2 -874.2,1025 -135.7,-60.3 0,-407 0,-407 0,0 -1944.4,738.6 -2065,572.8 -120.6,-165.8 -90.4,-226.1 90.4,-271.4 180.9,-45.2 1432,-437.1 1432,-437.1 0,0 -1884.1,467.3 -1733.4,256.3 150.7,-211.1 1552.5,-467.3 1552.5,-467.3 0,0 -1718.3,316.5 -1477.2,120.6 241.2,-196 1296.3,-331.6 1296.3,-331.6 0,0 -1175.7,15.1 -1115.4,-150.7 60.3,-165.8 196,-135.7 196,-135.7"
         style="fill:#ed7447;fill-opacity:1;fill-rule:nonzero;stroke:none"
         id="path76" />
      <path
         d="m 21880.2,5998.7 c -5.1,0 -10.4,1.1 -15.3,3.5 -17.5,8.5 -24.8,29.5 -16.3,47 228.9,472.1 -173.5,1027.9 -177.6,1033.5 l -1234.6,1792.4 c -11,16 -7,37.9 9,48.9 16,11.1 37.9,7 48.9,-9 l 1234,-1791.5 c 17.1,-23.2 431.2,-594.3 183.6,-1105 -6.1,-12.5 -18.6,-19.8 -31.7,-19.8"
         style="fill:#9b3212;fill-opacity:1;fill-rule:nonzero;stroke:none"
         id="path78" />
      <path
         d="m 12444.5,6692 c -6,0 -12,1.5 -17.5,4.7 -16.9,9.7 -22.6,31.3 -12.9,48.1 235.6,408.4 1548,188.3 1603.8,178.7 19.1,-3.3 32,-21.5 28.7,-40.6 -3.3,-19.2 -21.5,-32 -40.6,-28.7 -366.4,62.8 -1355.6,159.4 -1531,-144.6 -6.5,-11.3 -18.3,-17.6 -30.5,-17.6"
         style="fill:#9b3212;fill-opacity:1;fill-rule:nonzero;stroke:none"
         id="path80" />
      <path
         d="m 14795.7,8376 c -6.8,0 -13.7,2 -19.8,6.1 -16,10.9 -20.2,32.8 -9.2,48.9 l 292.2,429.2 c 10.9,16.1 32.8,20.3 48.9,9.3 16,-10.9 20.2,-32.8 9.2,-48.8 l -292.2,-429.3 c -6.8,-10 -17.9,-15.4 -29.1,-15.4"
         style="fill:#ffffff;fill-opacity:1;fill-rule:nonzero;stroke:none"
         id="path82" />
      <path
         d="m 38538.7,15827.3 c -40.9,872.5 523.2,1432.1 523.2,1432.1 0,0 1110.8,468.8 1786.9,-539.3 676.1,-1008.1 -170.2,-1891.9 -170.2,-1891.9 -254.7,-841.7 319.5,-1454.6 319.5,-1454.6 0,0 94,-182.9 34.2,-441 -59.8,-258 -1221.1,-1615.2 -1581.5,-1443.1 -360.4,172.1 -607.1,1730.5 -522.6,1882 592.6,293.3 491.4,870.3 491.4,870.3 -975.9,-10.9 -840,713.1 -880.9,1585.5"
         style="fill:#ed7447;fill-opacity:1;fill-rule:nonzero;stroke:none"
         id="path84" />
      <path
         d="m 39656.8,15660.3 c 43,-59.6 126.2,-73.1 185.8,-30.1 59.6,43 73.1,126.1 30.1,185.7 -43,59.7 -126.2,73.1 -185.8,30.1 -59.6,-43 -73.1,-126.1 -30.1,-185.7"
         style="fill:#382234;fill-opacity:1;fill-rule:nonzero;stroke:none"
         id="path86" />
      <path
         d="m 38701.2,15777.4 c -0.3,-73.5 59,-133.3 132.5,-133.6 73.5,-0.3 133.3,59.1 133.6,132.6 0.3,73.4 -59,133.3 -132.5,133.6 -73.5,0.2 -133.3,-59.1 -133.6,-132.6"
         style="fill:#382234;fill-opacity:1;fill-rule:nonzero;stroke:none"
         id="path88" />
      <path
         d="m 39263.2,15812.1 c 0,0 -349.2,-427.3 -290.4,-516.3 58.8,-88.9 206.5,-133.9 376.7,-82.8 l -64.4,547.3 c 0,0 0.2,40.7 -21.9,51.8"
         style="fill:#ed7447;fill-opacity:1;fill-rule:nonzero;stroke:none"
         id="path90" />
      <path
         d="m 39590.2,14843.5 -815.1,40.2 c 0,0 69.7,-371.9 391.4,-347.8 321.6,24.2 423.7,307.6 423.7,307.6"
         style="fill:#ffffff;fill-opacity:1;fill-rule:nonzero;stroke:none"
         id="path92" />
      <path
         d="m 40038.5,16202.1 c 15.1,25.3 1.9,61.6 -10.8,81.4 -34.2,53.4 -109.4,56.5 -188.3,59.9 -83,3.5 -173,7.2 -203.5,-47.3 -12.7,-22.8 -15.6,-56.8 -0.3,-81.3 18.8,-30.1 55.4,-30.4 214.3,-34.1 137.4,-3.2 173.1,-4.4 188.6,21.4"
         style="fill:#382234;fill-opacity:1;fill-rule:nonzero;stroke:none"
         id="path94" />
      <path
         d="m 38949.1,16152.2 c 15.1,25.3 1.9,61.6 -10.8,81.4 -34.2,53.4 -109.4,56.5 -188.2,59.9 -83,3.5 -173,7.3 -203.5,-47.3 -12.8,-22.8 -15.6,-56.8 -0.4,-81.3 18.8,-30.1 55.5,-30.4 214.3,-34.1 137.4,-3.2 173.1,-4.4 188.6,21.4"
         style="fill:#382234;fill-opacity:1;fill-rule:nonzero;stroke:none"
         id="path96" />
      <g
         id="g98">
        <g
           id="g100"
           clip-path="url(#clipPath104)">
          <path
             d="m 39419.6,14241.8 c 0,0 429,77.2 745.5,342.1 0,0 -141.1,-778.2 -999.3,-942.3 l 253.8,600.2"
             style="fill:#ed7447;fill-opacity:1;fill-rule:nonzero;stroke:none"
             id="path106" />
        </g>
      </g>
      <path
         d="m 38642.6,16565.3 c 0,0 -512.8,810.1 310.2,1157.2 0,0 67.1,638.5 839.5,348.5 772.4,-290.1 544.3,-357.7 1020.9,-270.8 476.5,87 1176.6,-775.2 799.8,-1287.7 -376.9,-512.5 9.5,-982.5 -168.7,-1262.9 -178.2,-280.5 -598.2,-831.3 -832.6,-816.1 0,0 -46.2,379.7 12.4,484.2 58.5,104.5 451.8,569.9 306.4,725.3 -145.3,155.3 -317.3,8.7 -317.3,8.7 0,0 73.2,1205.5 -310.4,1209.1 -383.6,3.5 -780.2,606 -1061.7,367.5 -281.5,-238.5 -403.5,-597.9 -598.5,-663"
         style="fill:#382234;fill-opacity:1;fill-rule:nonzero;stroke:none"
         id="path108" />
      <path
         d="m 43992.4,9080 -2122.8,-86.5 98.1,-1592.1 c 0,0 -2699.6,-415.3 -3391.8,-761.4 0,0 -1280.6,294.2 -1955.5,-899.9 0,0 4897.4,-294.2 5953,-190.3 1055.6,103.8 1211.3,224.9 1419,1263.2 v 2267"
         style="fill:#ed7447;fill-opacity:1;fill-rule:nonzero;stroke:none"
         id="path110" />
      <path
         d="m 36126,9228.1 c -5.5,0 -11.1,1.3 -16.3,4 -17.2,9 -23.8,30.3 -14.8,47.5 l 517.8,987.5 c 9,17.2 30.3,23.8 47.5,14.8 17.2,-9 23.8,-30.3 14.8,-47.5 l -517.8,-987.5 c -6.3,-11.9 -18.5,-18.8 -31.2,-18.8"
         style="fill:#ffffff;fill-opacity:1;fill-rule:nonzero;stroke:none"
         id="path112" />
      <path
         d="m 41869.6,8958.3 c -19.4,0 -35.1,15.7 -35.1,35.2 v 1357.7 c 0,19.4 15.7,35.2 35.1,35.2 19.5,0 35.2,-15.8 35.2,-35.2 V 8993.5 c 0,-19.5 -15.7,-35.2 -35.2,-35.2"
         style="fill:#ffffff;fill-opacity:1;fill-rule:nonzero;stroke:none"
         id="path114" />
      <path
         d="m 27144.7,14196.5 c 0,0 113.7,-861 -211.2,-1478.3 -324.9,-617.4 -373.6,-1445.8 -130,-1852 243.7,-406.1 1299.6,0 1332.1,1592 32.5,1592 -990.9,1738.3 -990.9,1738.3"
         style="fill:#382234;fill-opacity:1;fill-rule:nonzero;stroke:none"
         id="path116" />
      <path
         d="m 27539.5,15988.7 c 0,0 -625.1,-543.3 -583.3,-1390.9 41.7,-847.5 12.9,-1554 931.2,-1539.6 0,0 97.4,-560.3 -459.2,-847.6 0,0 -63.5,-841.4 1947.9,10.1 0,0 -542.6,593.3 -306,1412.1 0,0 793,861.9 153,1838.7 -640,976.8 -1683.6,517.2 -1683.6,517.2"
         style="fill:#ed7447;fill-opacity:1;fill-rule:nonzero;stroke:none"
         id="path118" />
      <path
         d="m 28043.2,14407.6 c 40.7,-57.8 119,-70.5 175,-28.5 55.9,42 68.3,122.8 27.6,180.6 -40.7,57.7 -119,70.5 -174.9,28.5 -56,-42 -68.3,-122.9 -27.7,-180.6"
         style="fill:#382234;fill-opacity:1;fill-rule:nonzero;stroke:none"
         id="path120" />
      <path
         d="m 27172.7,14497.5 c 0,-71.4 56.1,-129.3 125.2,-129.3 69.2,0 125.2,57.9 125.2,129.3 0,71.4 -56,129.3 -125.2,129.3 -69.1,0 -125.2,-57.9 -125.2,-129.3"
         style="fill:#382234;fill-opacity:1;fill-rule:nonzero;stroke:none"
         id="path122" />
      <path
         d="m 27668.9,14547.6 c 0,0 284.9,-448.3 221.2,-528.3 -63.7,-80 -206.4,-108.5 -360.7,-41.9 l 113.9,522.4 c 0,0 3.8,39.3 25.6,47.8"
         style="fill:#ed7447;fill-opacity:1;fill-rule:nonzero;stroke:none"
         id="path124" />
      <path
         d="m 28417.8,14853.4 c 14.2,24.6 1.6,59.8 -10.4,79 -32.4,51.7 -103.2,54.5 -177.4,57.5 -78.1,3 -162.8,6.4 -191.3,-46.7 -12,-22.3 -14.5,-55.3 0,-79 17.8,-29.2 52.2,-29.4 201.7,-32.3 129.4,-2.6 163,-3.6 177.4,21.5"
         style="fill:#382234;fill-opacity:1;fill-rule:nonzero;stroke:none"
         id="path126" />
      <path
         d="m 27520.6,14869.1 c 14.1,24.6 1.5,59.8 -10.5,79 -32.3,51.7 -103.1,54.5 -177.4,57.4 -78.1,3.1 -162.8,6.4 -191.3,-46.7 -11.9,-22.2 -14.4,-55.3 0,-79 17.8,-29.2 52.3,-29.3 201.8,-32.3 129.3,-2.6 162.9,-3.6 177.4,21.6"
         style="fill:#382234;fill-opacity:1;fill-rule:nonzero;stroke:none"
         id="path128" />
      <g
         id="g130">
        <g
           id="g132"
           clip-path="url(#clipPath136)">
          <path
             d="m 27887.4,13058.2 c 0,0 403.5,76.6 700.3,335.2 0,0 -129.9,-756.6 -936.9,-919.4 l 236.6,584.2"
             style="fill:#ed7447;fill-opacity:1;fill-rule:nonzero;stroke:none"
             id="path138" />
        </g>
      </g>
      <path
         d="m 27771.9,13349.1 c 261.1,33.7 368.1,237.4 398.8,312 h -799.9 c 27.2,-85.8 132.4,-346.7 401.1,-312"
         style="fill:#ffffff;fill-opacity:1;fill-rule:nonzero;stroke:none"
         id="path140" />
      <path
         d="m 27020.7,14721.5 c 0,0 64.9,1169.6 860.9,1218.3 796,48.8 1132.4,-875.8 1148.6,-1444.4 0,0 203.8,131.2 301.7,-13.7 101.4,-150.1 92.1,-389.9 -272.3,-574 0,0 -246.5,-795.9 64.7,-1522.1 301.1,-702.9 1144.5,-1332 2071.3,-1611.7 1884.4,-568.6 1527,1705.7 1023.5,2209.3 -503.6,503.6 -1202.2,1770.7 -1413.4,2631.7 -211.1,861 -828.5,1234.6 -1364.5,1055.9 0,0 -1072.2,1007.2 -2144.4,422.4 -1072.1,-584.8 -1234.6,-1770.7 -276.1,-2371.7"
         style="fill:#382234;fill-opacity:1;fill-rule:nonzero;stroke:none"
         id="path142" />
      <path
         d="m 28187.1,14006.5 c -196.9,0 -357.1,160.1 -357.1,357 0,196.9 160.2,357.1 357.1,357.1 196.8,0 357,-160.2 357,-357.1 0,-196.9 -160.2,-357 -357,-357 z m -1040.2,-14.1 c -196.9,0 -357,160.1 -357,357 0,196.9 160.1,357.1 357,357.1 196.9,0 357.1,-160.2 357.1,-357.1 0,-196.9 -160.2,-357 -357.1,-357 z m 1919.8,549.7 c -9.4,15.6 -29.6,20.7 -45.3,11.2 l -415.1,-133.7 c -27.6,206.9 -205,367 -419.2,367 -222.8,0 -405.7,-173.1 -421.8,-391.8 l -196.9,-10.6 c -17.7,217 -199.9,388.3 -421.5,388.3 -233.3,0 -423,-189.8 -423,-423.1 0,-233.2 189.7,-423 423,-423 222.7,0 405.7,173 421.8,391.7 l 196.8,10.7 c 17.8,-217.1 200,-388.3 421.6,-388.3 226.9,0 412.6,179.6 422.5,404.1 l 445.9,152.2 c 15.6,9.4 20.6,29.7 11.2,45.3"
         style="fill:#ffffff;fill-opacity:1;fill-rule:nonzero;stroke:none"
         id="path144" />
      <path
         d="m 24647.4,10317.5 1748.5,-1768.6 301.5,291.6 c 0,0 803.9,-1396.9 643.1,-3165.5 h 3939.1 l 120.5,3165.5 221.1,-311.7 1607.8,964.7 c 0,0 -1587.7,2994.5 -4059.7,3034.7 0,0 -823.9,-1306.3 -1607.7,-160.8 0,0 -2271,-241.2 -2914.2,-2049.9"
         style="fill:#ab1538;fill-opacity:1;fill-rule:nonzero;stroke:none"
         id="path146" />
      <path
         d="m 31411.2,8843.1 385.2,-1527.4 c 0,0 -2909.1,-60.3 -4009.4,-226.1 l -2773.5,-452.2 c 0,0 -1014.9,-440.5 -1088.6,-581.1 -73.6,-140.7 80.4,-167.5 80.4,-167.5 0,0 -207.6,-147.4 -67,-221.1 140.7,-73.7 321.6,33.5 321.6,33.5 0,0 -13.4,-174.2 167.5,-174.2 180.8,0 475.6,288.1 730.2,241.2 254.5,-46.9 1715,-150.7 2096.8,331.6 0,0 4039.6,-1276.2 5928.7,-693.3 0,0 612.6,239.5 713.1,1063.5 0,0 -225.1,2018.6 -667.2,3023.5 l -1817.8,-650.4"
         style="fill:#ed7447;fill-opacity:1;fill-rule:nonzero;stroke:none"
         id="path148" />
      <path
         d="m 24881.5,10043.1 -552.7,-954.6 c 0,0 -859.2,2100.2 -1266.1,2537.3 0,0 60.3,1080.2 -361.8,1522.4 0,0 -562.7,542.6 -834,572.7 0,0 -80.4,-90.4 0,-251.2 0,0 -904.4,773.8 -1004.9,673.3 -100.5,-100.5 -130.6,-211 0,-271.3 0,0 -401.9,30.1 -331.6,-100.5 70.4,-130.6 140.7,-190.9 140.7,-190.9 0,0 -281.4,-30.2 -211,-140.7 70.3,-110.6 502.4,-532.6 502.4,-532.6 0,0 -452.2,150.7 -442.1,-10.1 10,-160.7 803.9,-371.7 1055.1,-643.1 251.2,-271.3 582.8,-713.4 582.8,-713.4 0,0 30.1,-3677.8 1135.5,-4903.8 1105.3,-1225.9 1062.1,-1065.1 1234.5,-964.6 172.3,100.4 1679.6,2411.6 1961,2934.2 l -1607.8,1436.9"
         style="fill:#ed7447;fill-opacity:1;fill-rule:nonzero;stroke:none"
         id="path150" />
      <path
         d="m 26697.4,8805.3 c -13.1,0 -25.7,7.3 -31.7,19.9 -10.4,21.7 -252.6,538.8 -116.5,1294.9 3.5,19.1 21.7,31.9 40.9,28.4 19.1,-3.4 31.8,-21.7 28.4,-40.8 -131.9,-732.6 108.2,-1247 110.6,-1252.1 8.4,-17.5 1,-38.5 -16.5,-46.9 -5,-2.3 -10.1,-3.4 -15.2,-3.4"
         style="fill:#ffffff;fill-opacity:1;fill-rule:nonzero;stroke:none"
         id="path152" />
      <path
         d="m 31411.2,8807.9 c -12.8,0 -25.2,7.1 -31.4,19.3 -4.2,8.2 -422.8,831.5 -630.8,1178.1 -10,16.7 -4.6,38.3 12.1,48.3 16.6,10 38.2,4.6 48.2,-12.1 209.3,-348.7 629,-1174.2 633.3,-1182.5 8.7,-17.3 1.8,-38.5 -15.5,-47.3 -5.1,-2.5 -10.5,-3.8 -15.9,-3.8"
         style="fill:#ffffff;fill-opacity:1;fill-rule:nonzero;stroke:none"
         id="path154" />
      <path
         d="m 24005.4,5853.6 c -10.5,0 -20.8,4.7 -27.8,13.5 -11.9,15.3 -9.2,37.4 6,49.4 3.6,2.7 357.5,277.6 888.3,498 18,7.5 38.5,-1.1 46,-19 7.4,-18 -1.1,-38.5 -19,-46 -521.5,-216.5 -868.4,-485.7 -871.9,-488.4 -6.4,-5 -14.1,-7.5 -21.6,-7.5"
         style="fill:#9b3212;fill-opacity:1;fill-rule:nonzero;stroke:none"
         id="path156" />
      <path
         d="m 24259.9,5666.1 c -11.2,0 -22.2,5.3 -29,15.3 -11,16 -6.9,37.9 9.2,48.9 3.6,2.5 372.4,253.2 920.8,532.3 17.3,8.8 38.4,1.9 47.3,-15.4 8.8,-17.3 1.9,-38.5 -15.4,-47.3 -544.4,-277.1 -909.5,-525.3 -913.1,-527.7 -6,-4.2 -12.9,-6.1 -19.8,-6.1"
         style="fill:#9b3212;fill-opacity:1;fill-rule:nonzero;stroke:none"
         id="path158" />
      <path
         d="m 25071.9,15456.7 c 551,535.5 893.4,1284.4 893.4,2113.5 0,1627.7 -1319.5,2947.2 -2947.1,2947.2 -1627.7,0 -2947.2,-1319.5 -2947.2,-2947.2 0,-1627.7 1319.5,-2947.2 2947.2,-2947.2 405.3,0 791.5,81.9 1143.1,229.9 l 1191.6,-701.1 c 60.9,-35.9 133.8,22.6 112.1,89.9 l -393.1,1215"
         style="fill:#f5d0bd;fill-opacity:1;fill-rule:nonzero;stroke:none"
         id="path160" />
      <path
         d="m 24773.9,17846.8 h -3562.8 c -40.3,0 -72.9,32.6 -72.9,72.9 0,40.3 32.6,72.9 72.9,72.9 h 3562.8 c 40.3,0 72.9,-32.6 72.9,-72.9 0,-40.3 -32.6,-72.9 -72.9,-72.9"
         style="fill:#ffffff;fill-opacity:1;fill-rule:nonzero;stroke:none"
         id="path162" />
      <path
         d="m 24773.9,16869.6 h -3562.8 c -40.3,0 -72.9,32.7 -72.9,73 0,40.2 32.6,72.9 72.9,72.9 h 3562.8 c 40.3,0 72.9,-32.7 72.9,-72.9 0,-40.3 -32.6,-73 -72.9,-73"
         style="fill:#ffffff;fill-opacity:1;fill-rule:nonzero;stroke:none"
         id="path164" />
      <path
         d="m 36361.8,15104.8 c 412.1,400.5 668.2,960.7 668.2,1580.9 0,1217.5 -987,2204.5 -2204.5,2204.5 -1217.5,0 -2204.5,-987 -2204.5,-2204.5 0,-1217.6 987,-2204.5 2204.5,-2204.5 303.3,0 592.1,61.2 855.1,172 l 891.3,-524.5 c 45.6,-26.8 100.1,16.9 83.9,67.2 l -294,908.9"
         style="fill:#f5d0bd;fill-opacity:1;fill-rule:nonzero;stroke:none"
         id="path166" />
      <path
         d="m 36138.8,16892.6 h -2664.9 c -30.2,0 -54.6,24.4 -54.6,54.5 0,30.1 24.4,54.6 54.6,54.6 h 2664.9 c 30.1,0 54.6,-24.5 54.6,-54.6 0,-30.1 -24.5,-54.5 -54.6,-54.5"
         style="fill:#ffffff;fill-opacity:1;fill-rule:nonzero;stroke:none"
         id="path168" />
      <path
         d="m 36138.8,16161.7 h -2664.9 c -30.2,0 -54.6,24.4 -54.6,54.5 0,30.1 24.4,54.5 54.6,54.5 h 2664.9 c 30.1,0 54.6,-24.4 54.6,-54.5 0,-30.1 -24.5,-54.5 -54.6,-54.5"
         style="fill:#ffffff;fill-opacity:1;fill-rule:nonzero;stroke:none"
         id="path170" />
      <path
         d="m 10631.2,17127.6 c 0,0 -1166,654.2 -2036.08,-372.9 -870.07,-1027.1 -47.04,-2105.9 -47.04,-2105.9 176.32,-959.2 -532.37,-1563.5 -532.37,-1563.5 12.4,-9 24.66,-17.6 36.98,-26.4 442.27,-203.5 1440.4,-574 2158.61,-172.4 -513.83,396.4 -348.4,960 -348.4,960 1074.1,-133.1 1014,681.6 1167.2,1638 153.3,956.4 -398.9,1643.1 -398.9,1643.1"
         style="fill:#ed7447;fill-opacity:1;fill-rule:nonzero;stroke:none"
         id="path172" />
      <path
         d="m 9978.81,15438.8 c -54.77,-60.4 -148.09,-64.9 -208.44,-10.2 -60.36,54.8 -64.9,148.1 -10.13,208.5 54.76,60.3 148.09,64.9 208.44,10.1 60.32,-54.8 64.92,-148.1 10.13,-208.4"
         style="fill:#382234;fill-opacity:1;fill-rule:nonzero;stroke:none"
         id="path174" />
      <path
         d="m 10860.7,15474 c -8.8,-81.1 -81.6,-139.6 -162.6,-130.8 -81.1,8.8 -139.6,81.6 -130.8,162.6 8.8,81 81.6,139.6 162.6,130.8 81,-8.8 139.6,-81.6 130.8,-162.6"
         style="fill:#382234;fill-opacity:1;fill-rule:nonzero;stroke:none"
         id="path176" />
      <path
         d="m 10302.2,15694 c 0,0 331.8,-514.3 256,-605 -75.8,-90.8 -244.1,-122 -425.4,-44.6 l 138.8,595.2 c 0,0 4.8,44.8 30.6,54.4"
         style="fill:#ed7447;fill-opacity:1;fill-rule:nonzero;stroke:none"
         id="path178" />
      <path
         d="m 9679.1,15979.5 c -13.52,29.7 5.55,68.1 21.96,88.3 44.3,54.6 127.55,48.8 214.9,42.7 91.84,-6.5 191.54,-13.5 218.34,-77.3 11.3,-26.8 10.2,-64.6 -9.7,-89.7 -24.4,-30.8 -64.8,-26.7 -240.32,-11 -151.84,13.5 -191.35,16.6 -205.18,47"
         style="fill:#382234;fill-opacity:1;fill-rule:nonzero;stroke:none"
         id="path180" />
      <path
         d="m 10623.4,15921.9 c -13.6,29.8 5.5,68.1 21.9,88.4 44.3,54.5 127.6,48.7 214.9,42.6 91.9,-6.4 191.6,-13.4 218.4,-77.3 11.3,-26.8 10.2,-64.6 -9.7,-89.6 -24.4,-30.9 -64.8,-26.7 -240.3,-11.1 -151.9,13.6 -191.4,16.7 -205.2,47"
         style="fill:#382234;fill-opacity:1;fill-rule:nonzero;stroke:none"
         id="path182" />
      <g
         id="g184">
        <g
           id="g186"
           clip-path="url(#clipPath190)">
          <path
             d="m 9862.9,13846.5 c 0,0 -463.28,138.2 -779.2,469.3 0,0 59.01,-875 984.4,-1162.3 l -205.2,693"
             style="fill:#ed7447;fill-opacity:1;fill-rule:nonzero;stroke:none"
             id="path192" />
        </g>
      </g>
      <path
         d="m 9395.3,14913.5 c -266.07,153.2 -488.74,629.8 -485.88,1077.2 95.51,372.4 380.5,1005.1 1220.38,1075.8 0,0 964.9,-227 928.1,-1212.5 0,0 569.5,423.3 608,930.4 14.2,186.6 -32.3,350.6 -123,488.8 h 0.2 c -0.2,0.4 -0.5,0.7 -0.8,1 -48.5,73.6 -109.4,139.9 -180.5,198.2 -713.2,681.7 -1690.93,523.4 -1690.93,523.4 l 10.64,-14.8 c -307.78,-51.2 -650.42,-215.3 -984.82,-594.1 0,0 -807.96,153.6 -1008.33,-781.2 0,0 195.55,-1390.1 885.25,-2025.7 l 44.21,407.6 c 0,0 -365.07,435.4 -173.78,678.5 115.65,147 244.2,135.8 327.85,104 -12.82,-165.8 -77.8,-425.8 -69.31,-709.4 17.51,-584.5 138.31,-1349.6 989.53,-1409.6 851.19,-60 1280.79,-84.1 1228.09,1070.6 0,0 -1144.09,-27.5 -1524.9,191.8"
         style="fill:#382234;fill-opacity:1;fill-rule:nonzero;stroke:none"
         id="path194" />
      <path
         d="m 9744.28,14557 806.22,-87.5 c 0,0 -126.4,-354.1 -438.3,-280.3 -311.84,73.8 -367.92,367.8 -367.92,367.8"
         style="fill:#ffffff;fill-opacity:1;fill-rule:nonzero;stroke:none"
         id="path196" />
      <path
         d="M 8400.04,13628 C 5988.36,12502.6 4702.13,5790.1 4702.13,5790.1 h 4343.06 c 904.38,1674.4 1163.61,5989 1163.61,5989 40.2,2411.6 -1808.76,1848.9 -1808.76,1848.9"
         style="fill:#2e78b7;fill-opacity:1;fill-rule:nonzero;stroke:none"
         id="path198" />
      <path
         d="m 9795.17,12322 c 0,0 1234.93,-4003.4 778.53,-6531.9 H 7625.26 c 0,0 300.26,5463.3 2169.91,6531.9"
         style="fill:#2e88e9;fill-opacity:1;fill-rule:nonzero;stroke:none"
         id="path200" />
      <path
         d="m 7285.88,10811.5 h 1802.06 c 0,0 221.07,1225.9 0,1889.1 -221.07,663.2 944.56,2210.7 1065.16,2090.1 120.6,-120.6 -341.65,-844.1 -401.95,-1065.1 0,0 281.35,46.9 274.65,-187.6 0,0 274.7,174.2 314.9,-140.7 0,0 207.6,67 221,-60.3 13.4,-127.3 -46.9,-254.5 -46.9,-254.5 0,0 134,-971.4 -127.2,-1534.1 -261.3,-562.8 -13.4,-3610.9 -53.6,-4374.6 -40.2,-763.7 -185.7,-1808.7 -1174.75,-1808.7 -989.09,0 -2275.31,1788.6 -1873.37,5446.4"
         style="fill:#ed7447;fill-opacity:1;fill-rule:nonzero;stroke:none"
         id="path202" />
      <path
         d="m 8337.18,6801.6 c -16.51,0 -31.23,11.7 -34.49,28.5 -78.83,407.2 27.34,1211.3 315.54,2390.1 214.05,875.5 454.19,1642.3 456.59,1650 5.83,18.5 25.58,28.8 44.09,23 18.53,-5.9 28.84,-25.6 23.02,-44.1 -9.57,-30.5 -954.09,-3055.7 -770.18,-4005.6 3.69,-19.1 -8.78,-37.6 -27.84,-41.2 -2.26,-0.5 -4.51,-0.7 -6.73,-0.7"
         style="fill:#9b3212;fill-opacity:1;fill-rule:nonzero;stroke:none"
         id="path204" />
      <path
         d="m 9576.76,13078.6 c -1.03,0 -2.07,0.1 -3.12,0.2 -19.35,1.7 -33.66,18.7 -31.96,38.1 33.83,385.7 173.56,617.4 179.49,627.1 10.15,16.5 31.8,21.7 48.37,11.6 16.55,-10.2 21.74,-31.8 11.62,-48.4 v 0 c -1.37,-2.2 -137.13,-228.4 -169.41,-596.5 -1.6,-18.3 -16.95,-32.1 -34.99,-32.1"
         style="fill:#9b3212;fill-opacity:1;fill-rule:nonzero;stroke:none"
         id="path206" />
      <path
         d="m 9911.65,13051.9 c -18.89,0 -34.5,14.9 -35.14,34 -6.89,207.2 112.55,456.9 117.64,467.4 8.45,17.5 29.45,24.8 46.95,16.4 17.5,-8.5 24.8,-29.5 16.4,-47 -1.2,-2.4 -117,-244.7 -110.68,-434.5 0.65,-19.4 -14.56,-35.7 -33.98,-36.3 -0.4,0 -0.8,0 -1.19,0"
         style="fill:#9b3212;fill-opacity:1;fill-rule:nonzero;stroke:none"
         id="path208" />
      <path
         d="m 10209.5,12790.6 c -1,0 -2,0 -2.9,0.1 -19.4,1.6 -33.8,18.6 -32.2,37.9 23.2,283 128.8,569 133.3,581 6.8,18.2 27.1,27.5 45.2,20.7 18.3,-6.8 27.5,-27.1 20.7,-45.3 -1,-2.8 -106.7,-289.1 -129.1,-562.1 -1.5,-18.4 -16.9,-32.3 -35,-32.3"
         style="fill:#9b3212;fill-opacity:1;fill-rule:nonzero;stroke:none"
         id="path210" />
      <path
         d="m 17978.6,5280.1 c -12.1,0 -23.9,6.3 -30.4,17.5 -1.7,2.8 -159.8,269.4 -457.2,413.3 -17.5,8.5 -24.8,29.5 -16.4,47 8.5,17.5 29.5,24.8 47,16.4 317.5,-153.7 480.6,-429.7 487.4,-441.3 9.7,-16.8 4,-38.3 -12.7,-48.1 -5.6,-3.2 -11.7,-4.8 -17.7,-4.8"
         style="fill:#9b3212;fill-opacity:1;fill-rule:nonzero;stroke:none"
         id="path212" />
      <path
         d="m 17626.9,5244.4 c -12.6,0 -24.8,6.8 -31.1,18.8 -2.2,4.1 -191.1,354.2 -586,527.6 -17.8,7.8 -25.9,28.5 -18.1,46.3 7.9,17.8 28.6,25.9 46.4,18.1 418.4,-183.7 611.9,-544 619.9,-559.2 9,-17.2 2.4,-38.5 -14.7,-47.5 -5.3,-2.8 -10.9,-4.1 -16.4,-4.1"
         style="fill:#9b3212;fill-opacity:1;fill-rule:nonzero;stroke:none"
         id="path214" />
      <path
         d="m 17204.8,5225.1 c -14,0 -27.2,8.4 -32.7,22.3 -1.4,3.4 -111.8,273.1 -447,464.7 -16.8,9.6 -22.7,31.1 -13.1,47.9 9.7,16.9 31.2,22.8 48,13.1 358.4,-204.7 472.9,-488 477.6,-500 7.1,-18.1 -1.8,-38.5 -19.9,-45.6 -4.2,-1.6 -8.6,-2.4 -12.9,-2.4"
         style="fill:#9b3212;fill-opacity:1;fill-rule:nonzero;stroke:none"
         id="path216" />
      <path
         d="m 16799.6,5237.6 c -10.4,0 -20.7,4.6 -27.6,13.4 -70.6,89.3 -155.3,162.4 -156.1,163.1 -14.7,12.7 -16.4,34.9 -3.8,49.6 12.7,14.7 34.9,16.4 49.6,3.8 3.7,-3.2 90.6,-78.1 165.5,-172.9 12,-15.3 9.4,-37.4 -5.8,-49.4 -6.5,-5.1 -14.1,-7.6 -21.8,-7.6"
         style="fill:#9b3212;fill-opacity:1;fill-rule:nonzero;stroke:none"
         id="path218" />
      <path
         d="m 37017.7,5704.7 c -6,0 -12.1,1.6 -17.7,4.8 -16.8,9.8 -22.5,31.3 -12.7,48.1 6.8,11.7 169.8,287.6 487.4,441.3 17.4,8.4 38.5,1.1 46.9,-16.4 8.5,-17.4 1.2,-38.5 -16.3,-46.9 -298.4,-144.4 -455.6,-410.7 -457.2,-413.4 -6.5,-11.2 -18.3,-17.5 -30.4,-17.5"
         style="fill:#9b3212;fill-opacity:1;fill-rule:nonzero;stroke:none"
         id="path220" />
      <path
         d="m 37369.4,5669 c -5.5,0 -11.2,1.3 -16.4,4.1 -17.2,9.1 -23.8,30.3 -14.7,47.5 8,15.3 201.4,375.5 619.9,559.2 17.8,7.8 38.5,-0.3 46.3,-18.1 7.8,-17.7 -0.3,-38.5 -18,-46.3 -396.2,-173.9 -584.1,-524 -586,-527.6 -6.3,-11.9 -18.5,-18.8 -31.1,-18.8"
         style="fill:#9b3212;fill-opacity:1;fill-rule:nonzero;stroke:none"
         id="path222" />
      <path
         d="m 37791.4,5649.7 c -4.3,0 -8.6,0.8 -12.9,2.5 -18,7.1 -26.9,27.5 -19.8,45.5 4.7,12 119.2,295.3 477.5,500 16.9,9.7 38.4,3.8 48,-13 9.7,-16.9 3.8,-38.4 -13.1,-48 -335.6,-191.8 -445.9,-462 -446.9,-464.7 -5.5,-13.8 -18.8,-22.3 -32.8,-22.3"
         style="fill:#9b3212;fill-opacity:1;fill-rule:nonzero;stroke:none"
         id="path224" />
      <path
         d="m 38196.7,5662.2 c -7.7,0 -15.4,2.5 -21.8,7.6 -15.3,12 -17.9,34.2 -5.8,49.4 74.9,94.8 161.8,169.7 165.5,172.9 14.7,12.6 36.9,10.9 49.5,-3.8 12.7,-14.7 11,-36.9 -3.7,-49.6 -0.9,-0.7 -85.5,-73.8 -156.1,-163.1 -7,-8.8 -17.3,-13.4 -27.6,-13.4"
         style="fill:#9b3212;fill-opacity:1;fill-rule:nonzero;stroke:none"
         id="path226" />
    </g>
  </g>
</svg>
